<mxfile host="Electron" agent="Mozilla/5.0 (Windows NT 10.0; Win64; x64) AppleWebKit/537.36 (KHTML, like Gecko) draw.io/25.0.2 Chrome/128.0.6613.186 Electron/32.2.5 Safari/537.36" version="25.0.2">
  <diagram name="Page-1" id="gj19HKmGVB9weTTo7x8S">
    <mxGraphModel dx="1036" dy="575" grid="1" gridSize="10" guides="1" tooltips="1" connect="1" arrows="1" fold="1" page="1" pageScale="1" pageWidth="850" pageHeight="1100" math="0" shadow="0">
      <root>
        <mxCell id="0" />
        <mxCell id="1" parent="0" />
        <mxCell id="7gAAHcVd_hj4cr9gyTy--21" style="edgeStyle=orthogonalEdgeStyle;rounded=0;orthogonalLoop=1;jettySize=auto;html=1;entryX=0;entryY=0.5;entryDx=0;entryDy=0;" edge="1" parent="1" source="7gAAHcVd_hj4cr9gyTy--1" target="7gAAHcVd_hj4cr9gyTy--20">
          <mxGeometry relative="1" as="geometry" />
        </mxCell>
        <mxCell id="7gAAHcVd_hj4cr9gyTy--1" value="star" style="ellipse;whiteSpace=wrap;html=1;" vertex="1" parent="1">
          <mxGeometry y="270" width="120" height="80" as="geometry" />
        </mxCell>
        <mxCell id="7gAAHcVd_hj4cr9gyTy--2" value="" style="ellipse;whiteSpace=wrap;html=1;" vertex="1" parent="1">
          <mxGeometry x="730" y="260" width="120" height="80" as="geometry" />
        </mxCell>
        <mxCell id="7gAAHcVd_hj4cr9gyTy--13" style="edgeStyle=orthogonalEdgeStyle;rounded=0;orthogonalLoop=1;jettySize=auto;html=1;exitX=0.5;exitY=0;exitDx=0;exitDy=0;entryX=0;entryY=0.5;entryDx=0;entryDy=0;" edge="1" parent="1" source="7gAAHcVd_hj4cr9gyTy--7">
          <mxGeometry relative="1" as="geometry">
            <mxPoint x="365" y="200" as="targetPoint" />
          </mxGeometry>
        </mxCell>
        <mxCell id="7gAAHcVd_hj4cr9gyTy--16" value="Đúng" style="edgeLabel;html=1;align=center;verticalAlign=middle;resizable=0;points=[];" vertex="1" connectable="0" parent="7gAAHcVd_hj4cr9gyTy--13">
          <mxGeometry x="0.1968" relative="1" as="geometry">
            <mxPoint as="offset" />
          </mxGeometry>
        </mxCell>
        <mxCell id="7gAAHcVd_hj4cr9gyTy--14" style="edgeStyle=orthogonalEdgeStyle;rounded=0;orthogonalLoop=1;jettySize=auto;html=1;exitX=0.5;exitY=1;exitDx=0;exitDy=0;entryX=0;entryY=0.75;entryDx=0;entryDy=0;" edge="1" parent="1" source="7gAAHcVd_hj4cr9gyTy--7" target="7gAAHcVd_hj4cr9gyTy--12">
          <mxGeometry relative="1" as="geometry" />
        </mxCell>
        <mxCell id="7gAAHcVd_hj4cr9gyTy--17" value="sai" style="edgeLabel;html=1;align=center;verticalAlign=middle;resizable=0;points=[];" vertex="1" connectable="0" parent="7gAAHcVd_hj4cr9gyTy--14">
          <mxGeometry x="0.2824" y="-3" relative="1" as="geometry">
            <mxPoint as="offset" />
          </mxGeometry>
        </mxCell>
        <mxCell id="7gAAHcVd_hj4cr9gyTy--7" value="if % 2==0" style="rhombus;whiteSpace=wrap;html=1;" vertex="1" parent="1">
          <mxGeometry x="230" y="250" width="120" height="90" as="geometry" />
        </mxCell>
        <mxCell id="7gAAHcVd_hj4cr9gyTy--25" style="edgeStyle=orthogonalEdgeStyle;rounded=0;orthogonalLoop=1;jettySize=auto;html=1;" edge="1" parent="1" source="7gAAHcVd_hj4cr9gyTy--12" target="7gAAHcVd_hj4cr9gyTy--2">
          <mxGeometry relative="1" as="geometry" />
        </mxCell>
        <mxCell id="7gAAHcVd_hj4cr9gyTy--12" value="số lẻ" style="rounded=1;whiteSpace=wrap;html=1;" vertex="1" parent="1">
          <mxGeometry x="370" y="380" width="120" height="60" as="geometry" />
        </mxCell>
        <mxCell id="7gAAHcVd_hj4cr9gyTy--22" style="edgeStyle=orthogonalEdgeStyle;rounded=0;orthogonalLoop=1;jettySize=auto;html=1;entryX=0;entryY=0.5;entryDx=0;entryDy=0;" edge="1" parent="1" source="7gAAHcVd_hj4cr9gyTy--20" target="7gAAHcVd_hj4cr9gyTy--7">
          <mxGeometry relative="1" as="geometry">
            <mxPoint x="220" y="300" as="targetPoint" />
          </mxGeometry>
        </mxCell>
        <mxCell id="7gAAHcVd_hj4cr9gyTy--20" value="int Number" style="shape=parallelogram;perimeter=parallelogramPerimeter;whiteSpace=wrap;html=1;fixedSize=1;" vertex="1" parent="1">
          <mxGeometry x="90" y="380" width="120" height="60" as="geometry" />
        </mxCell>
        <mxCell id="7gAAHcVd_hj4cr9gyTy--24" style="edgeStyle=orthogonalEdgeStyle;rounded=0;orthogonalLoop=1;jettySize=auto;html=1;entryX=0;entryY=0.5;entryDx=0;entryDy=0;" edge="1" parent="1" source="7gAAHcVd_hj4cr9gyTy--23" target="7gAAHcVd_hj4cr9gyTy--2">
          <mxGeometry relative="1" as="geometry" />
        </mxCell>
        <mxCell id="7gAAHcVd_hj4cr9gyTy--23" value="số chẵn" style="rounded=1;whiteSpace=wrap;html=1;" vertex="1" parent="1">
          <mxGeometry x="360" y="140" width="120" height="60" as="geometry" />
        </mxCell>
      </root>
    </mxGraphModel>
  </diagram>
</mxfile>
